<svg width="211" height="5" viewBox="0 0 211 5" fill="none" xmlns="http://www.w3.org/2000/svg">
<path fill-rule="evenodd" clip-rule="evenodd" d="M196.982 0.828574C193.951 0.845993 190.809 0.828576 187.778 0.898252C174.871 1.24663 161.851 1.14211 148.944 1.12469C137.159 1.12469 125.487 1.36856 113.926 1.62985C103.152 1.87371 92.6012 2.10016 81.7142 1.78662C71.9496 1.50791 61.9605 1.64727 52.1959 1.85629C43.2169 2.0479 34.3502 2.0479 25.3712 1.85629C19.5349 1.71694 13.6986 1.71694 7.86227 1.82145C6.29095 1.85629 4.83187 1.87371 3.26055 1.85629C1.46476 1.85629 -0.10657 1.54275 0.00566706 1.24663C0.00566706 0.985341 0.903556 0.793733 2.47487 0.689219C3.03606 0.654382 3.7095 0.602127 4.27069 0.636965C11.5661 0.915668 19.086 0.636968 26.3814 0.933091C30.9831 1.10728 35.5848 1.15954 40.1865 1.14212C49.1655 1.10728 58.1444 1.15954 67.0112 0.933091C68.807 0.880834 70.715 0.898253 72.5108 0.933091C82.0509 1.19438 91.5911 1.14211 101.243 1.12469C104.947 1.12469 108.651 1.0376 112.243 0.933091C125.936 0.549873 139.741 0.323427 153.658 0.497616C155.454 0.515035 157.362 0.532454 159.158 0.497616C171.392 0.131818 183.85 0.37568 196.084 0.0447196C200.237 -0.0597942 204.726 0.0447175 208.991 0.0969744C209.664 0.0969744 210.675 0.253748 210.899 0.358261C211.348 0.584708 210.226 0.724063 208.991 0.77632C207.532 0.845995 205.961 0.880829 204.502 0.880829C202.032 0.880829 199.563 0.880829 197.094 0.880829L196.982 0.828574Z" fill="#FF0074"/>
<path fill-rule="evenodd" clip-rule="evenodd" d="M35.4903 4.17143C38.1904 4.15401 40.9904 4.17142 43.6905 4.10175C55.1908 3.75337 66.7911 3.85789 78.2914 3.87531C88.7917 3.87531 99.192 3.63144 109.492 3.37015C119.092 3.12629 128.493 2.89984 138.193 3.21338C146.893 3.49209 155.793 3.35273 164.494 3.14371C172.494 2.9521 180.394 2.9521 188.394 3.14371C193.594 3.28306 198.795 3.28306 203.995 3.17855C205.395 3.14371 206.695 3.12629 208.095 3.14371C209.695 3.14371 211.095 3.45725 210.995 3.75337C210.995 4.01466 210.195 4.20627 208.795 4.31078C208.295 4.34562 207.695 4.39787 207.195 4.36304C200.695 4.08433 193.994 4.36303 187.494 4.06691C183.394 3.89272 179.294 3.84046 175.194 3.85788C167.194 3.89272 159.194 3.84046 151.293 4.06691C149.693 4.11917 147.993 4.10175 146.393 4.06691C137.893 3.80562 129.393 3.85789 120.793 3.87531C117.492 3.87531 114.192 3.9624 110.992 4.06691C98.792 4.45013 86.4917 4.67657 74.0913 4.50238C72.4913 4.48496 70.7912 4.46755 69.1912 4.50238C58.2909 4.86818 47.1906 4.62432 36.2903 4.95528C32.5902 5.05979 28.5901 4.95528 24.79 4.90303C24.19 4.90303 23.2899 4.74625 23.0899 4.64174C22.6899 4.41529 23.69 4.27594 24.79 4.22368C26.09 4.154 27.4901 4.11917 28.7901 4.11917C30.9901 4.11917 33.1902 4.11917 35.3903 4.11917L35.4903 4.17143Z" fill="#FF0074"/>
</svg>
