<svg width="233" height="4" viewBox="0 0 233 4" fill="none" xmlns="http://www.w3.org/2000/svg">
<path fill-rule="evenodd" clip-rule="evenodd" d="M8.35639 2.05589C8.28233 2.22961 8.28233 2.40333 8.13422 2.49019C7.80096 2.66391 7.46771 2.86657 7.0604 2.92447C5.28304 3.30086 3.50568 3.61934 1.72832 3.96678C1.43209 4.02468 1.09884 3.99573 0.839641 3.96678C0.43233 3.87992 0.136104 3.6483 0.0250189 3.30086C-0.0490377 2.98238 0.025019 2.63495 0.469359 2.49019C1.02478 2.28752 1.58021 2.05589 2.17266 1.99799C4.09813 1.88218 6.0236 1.82427 7.94907 1.79532C8.09719 1.79532 8.2453 1.96904 8.35639 2.08485V2.05589Z" fill="#FF0074"/>
<path fill-rule="evenodd" clip-rule="evenodd" d="M42.2741 1.62175C41.6076 1.56384 40.4968 1.50593 39.423 1.39012C39.0157 1.33221 38.7565 1.07164 38.7935 0.695249C38.8305 0.318863 39.2008 0.0872498 39.6081 0.116203C41.7187 0.232014 43.7923 0.376771 45.9029 0.550488C46.1991 0.550488 46.3843 0.811063 46.3473 1.07164C46.3473 1.18745 46.1621 1.36116 46.014 1.41907C44.9772 1.88231 43.8664 1.62175 42.3112 1.62175H42.2741Z" fill="#FF0074"/>
<path fill-rule="evenodd" clip-rule="evenodd" d="M76.1921 0.49234C77.0808 0.521293 77.7103 0.550248 78.3027 0.608154C78.8211 0.666059 79.3395 0.810828 79.3395 1.30303C79.3395 1.67941 78.8952 1.82418 78.4879 1.88208C77.0808 2.0558 75.6367 2.08475 74.2296 1.82418C73.8223 1.73732 73.452 1.56359 73.489 1.21616C73.489 0.839773 73.9704 0.695018 74.3777 0.637113C75.0813 0.550254 75.7848 0.550252 76.2291 0.521299L76.1921 0.49234Z" fill="#FF0074"/>
<path fill-rule="evenodd" clip-rule="evenodd" d="M28.7218 2.98237C28.0183 2.98237 27.3148 2.98237 26.6112 2.98237C26.5001 2.98237 26.315 2.75075 26.315 2.63494C26.315 2.49018 26.3891 2.31646 26.5372 2.2296C26.7593 2.08484 27.0556 1.96902 27.3518 1.94007C28.944 1.85321 30.5362 1.88217 32.1284 1.56369C32.3136 1.53474 32.5358 1.56369 32.7209 1.59264C33.1282 1.6795 33.4985 1.88217 33.4615 2.2296C33.4615 2.40332 33.1282 2.63494 32.906 2.69285C31.536 3.04028 30.1289 2.98237 28.7589 2.98237H28.7218Z" fill="#FF0074"/>
<path fill-rule="evenodd" clip-rule="evenodd" d="M17.132 3.32976C16.3174 3.32976 15.5027 3.32976 14.6881 3.32976C14.3549 3.32976 14.0957 3.21395 14.0216 2.95337C13.9105 2.6928 14.0957 2.49013 14.3549 2.37432C16.2803 1.62154 18.0947 1.96897 19.835 2.72175C19.9461 2.77965 20.0202 3.01127 19.9461 3.12708C19.9091 3.24289 19.6869 3.38766 19.5388 3.38766C18.7242 3.38766 17.9096 3.38766 17.0949 3.38766C17.0949 3.35871 17.0949 3.32976 17.0949 3.3008L17.132 3.32976Z" fill="#FF0074"/>
<path fill-rule="evenodd" clip-rule="evenodd" d="M138.622 2.5192C137.918 2.49025 137.215 2.72187 136.548 2.4613C136.4 2.40339 136.252 2.22968 136.215 2.11386C136.215 1.99805 136.252 1.73748 136.363 1.70853C138.067 1.21633 139.77 0.753089 141.547 1.3611C141.843 1.47691 141.954 1.70852 141.88 1.94014C141.843 2.08491 141.695 2.25863 141.547 2.28759C140.621 2.63502 139.585 2.4613 138.585 2.5192H138.622Z" fill="#FF0074"/>
<path fill-rule="evenodd" clip-rule="evenodd" d="M131.253 2.4902C129.624 2.51915 128.365 2.25857 127.143 1.79533C126.921 1.70847 126.699 1.41895 126.699 1.24523C126.699 0.839891 127.18 0.72408 127.551 0.781986C129.143 1.01361 130.735 1.24523 132.327 1.53475C132.475 1.53475 132.623 1.73743 132.66 1.88219C132.734 2.17172 132.438 2.31648 132.142 2.37439C131.772 2.46124 131.327 2.4902 131.216 2.4902H131.253Z" fill="#FF0074"/>
<path fill-rule="evenodd" clip-rule="evenodd" d="M108.481 0.376615C109.888 0.492426 111.11 0.492427 112.258 0.897766C112.628 1.04253 113.035 1.21624 112.887 1.59263C112.739 1.94006 112.295 1.96902 111.887 1.96902C110.443 1.99797 109.073 1.67948 107.703 1.33205C107.481 1.27415 107.185 1.01357 107.185 0.8109C107.185 0.376609 107.666 0.376609 108.036 0.347656C108.259 0.347656 108.444 0.347656 108.481 0.347656V0.376615Z" fill="#FF0074"/>
<path fill-rule="evenodd" clip-rule="evenodd" d="M55.7154 1.99809C55.1229 1.85333 54.0491 1.65066 53.0123 1.39009C51.8645 1.10056 51.309 0.724173 51.6423 0.463598C52.2347 0.0293068 52.9383 0.00035844 53.6048 0.174075C54.6416 0.43465 55.6784 0.782082 56.7152 1.10056C57.0114 1.18742 57.2706 1.39009 57.1595 1.62171C57.0854 1.79543 56.7522 1.88228 56.493 1.99809C56.4189 2.02704 56.3079 1.99809 55.6784 1.99809H55.7154Z" fill="#FF0074"/>
<path fill-rule="evenodd" clip-rule="evenodd" d="M154.803 0.695068C155.914 0.839832 157.136 0.955649 158.21 1.44785C158.58 1.62156 158.876 1.88214 158.617 2.22957C158.506 2.40329 158.099 2.57701 157.876 2.54806C156.692 2.37434 155.507 2.14271 154.322 1.91109C153.914 1.82423 153.618 1.62156 153.544 1.27413C153.47 0.984598 154.1 0.695075 154.803 0.724027V0.695068Z" fill="#FF0074"/>
<path fill-rule="evenodd" clip-rule="evenodd" d="M148.953 0.95578C149.804 1.01369 150.434 1.01369 151.026 1.07159C151.471 1.10055 151.804 1.33217 151.804 1.6796C151.804 2.02703 151.397 2.22971 151.026 2.31656C149.693 2.63504 148.434 2.46133 147.287 1.82437C147.175 1.73751 147.064 1.53484 147.101 1.41902C147.101 1.30321 147.287 1.10055 147.435 1.07159C148.027 1.01369 148.62 0.984739 148.99 0.984739L148.953 0.95578Z" fill="#FF0074"/>
<path fill-rule="evenodd" clip-rule="evenodd" d="M65.8983 2.11378C65.0096 1.70845 63.5285 2.49017 62.899 1.2452C63.9358 0.405573 65.1577 0.984622 66.3056 0.955669C66.787 0.955669 67.3054 1.04254 67.7868 1.15835C68.0089 1.21625 68.2681 1.44787 68.3422 1.65054C68.4162 1.94007 68.12 2.08483 67.7868 2.11378C67.1943 2.14274 66.5648 2.11378 65.8613 2.11378H65.8983Z" fill="#FF0074"/>
<path fill-rule="evenodd" clip-rule="evenodd" d="M87.708 0.289612C88.5597 0.434376 89.6335 0.579145 90.7073 0.781815C90.9295 0.83972 91.1516 1.12925 91.1887 1.30297C91.1887 1.7083 90.7814 1.88202 90.3741 1.82412C89.1892 1.67935 88.0042 1.50563 86.8564 1.27401C86.6342 1.24505 86.375 0.955531 86.375 0.781815C86.338 0.376476 86.7823 0.318565 87.1896 0.289612C87.3007 0.289612 87.4118 0.289612 87.745 0.289612H87.708Z" fill="#FF0074"/>
<path fill-rule="evenodd" clip-rule="evenodd" d="M120.33 2.05594C119.182 1.99803 118.219 2.05593 117.516 1.47688C117.405 1.39002 117.368 1.18736 117.405 1.04259C117.442 0.897829 117.627 0.724104 117.738 0.695152C119.145 0.550388 120.515 0.839918 121.885 1.07154C121.996 1.07154 122.144 1.33212 122.107 1.44793C122.107 1.59269 121.959 1.79537 121.811 1.82432C121.219 1.94013 120.626 1.96908 120.293 2.02699L120.33 2.05594Z" fill="#FF0074"/>
<path fill-rule="evenodd" clip-rule="evenodd" d="M99.3349 0.000213623C100.298 0.0291664 101.223 -0.0287445 101.927 0.492405C102.038 0.579264 102.112 0.781942 102.075 0.897754C102.075 1.04252 101.927 1.21623 101.779 1.27413C100.594 1.65052 99.446 1.361 98.3352 1.04252C98.039 0.955657 97.8538 0.781939 97.8908 0.521364C97.9279 0.260789 98.1871 0.144974 98.4833 0.0870684C98.7795 0.0581156 99.0757 0.0291664 99.2979 0.000213623H99.3349Z" fill="#FF0074"/>
<path fill-rule="evenodd" clip-rule="evenodd" d="M173.003 1.94432C172.929 1.7706 172.929 1.59688 172.781 1.51002C172.447 1.33631 172.114 1.13364 171.707 1.07574C169.929 0.699353 168.152 0.38087 166.375 0.033437C166.079 -0.0244684 165.745 0.00448442 165.486 0.033437C165.079 0.120295 164.783 0.351916 164.671 0.69935C164.597 1.01783 164.671 1.36526 165.116 1.51002C165.671 1.71269 166.227 1.94432 166.819 2.00223C168.745 2.11804 170.67 2.17594 172.595 2.2049C172.744 2.2049 172.892 2.03117 173.003 1.91536V1.94432Z" fill="#FF0074"/>
<path fill-rule="evenodd" clip-rule="evenodd" d="M206.921 2.37844C206.254 2.43634 205.143 2.49425 204.069 2.61006C203.662 2.66797 203.403 2.92855 203.44 3.30493C203.477 3.68132 203.847 3.91293 204.255 3.88398C206.365 3.76817 208.439 3.62341 210.549 3.4497C210.846 3.4497 211.031 3.18912 210.994 2.92854C210.994 2.81273 210.809 2.63902 210.66 2.58111C209.624 2.11787 208.513 2.37844 206.958 2.37844H206.921Z" fill="#FF0074"/>
<path fill-rule="evenodd" clip-rule="evenodd" d="M193.368 1.01784C192.665 1.01784 191.961 1.01784 191.258 1.01784C191.147 1.01784 190.961 1.24946 190.961 1.36527C190.961 1.51004 191.035 1.68375 191.184 1.77061C191.406 1.91537 191.702 2.03119 191.998 2.06015C193.59 2.147 195.183 2.11804 196.775 2.43652C196.96 2.46548 197.182 2.43653 197.367 2.40758C197.775 2.32072 198.145 2.11804 198.108 1.77061C198.108 1.59689 197.775 1.36527 197.552 1.30737C196.182 0.959934 194.775 1.01784 193.405 1.01784H193.368Z" fill="#FF0074"/>
<path fill-rule="evenodd" clip-rule="evenodd" d="M181.778 0.670451C180.964 0.670451 180.149 0.670451 179.335 0.670451C179.001 0.670451 178.742 0.786265 178.668 1.04684C178.557 1.30742 178.742 1.51009 179.001 1.6259C180.927 2.37867 182.741 2.03124 184.481 1.27847C184.593 1.22056 184.667 0.988942 184.593 0.873131C184.556 0.75732 184.333 0.612555 184.185 0.612555C183.371 0.612555 182.556 0.612555 181.741 0.612555C181.741 0.641508 181.741 0.670457 181.741 0.69941L181.778 0.670451Z" fill="#FF0074"/>
<path fill-rule="evenodd" clip-rule="evenodd" d="M220.362 2.00212C219.769 2.14689 218.696 2.34955 217.659 2.61013C216.511 2.89966 215.955 3.27604 216.289 3.53662C216.881 3.97091 217.585 3.99986 218.251 3.82614C219.288 3.56556 220.325 3.21813 221.362 2.89965C221.658 2.81279 221.917 2.61012 221.806 2.3785C221.732 2.20478 221.399 2.11793 221.139 2.00212C221.065 1.97317 220.954 2.00212 220.325 2.00212H220.362Z" fill="#FF0074"/>
<path fill-rule="evenodd" clip-rule="evenodd" d="M230.545 1.8864C229.656 2.29174 228.175 1.51001 227.545 2.75498C228.582 3.59461 229.804 3.01556 230.952 3.04451C231.433 3.04451 231.952 2.95765 232.433 2.84183C232.655 2.78393 232.914 2.55231 232.989 2.34964C233.063 2.06012 232.766 1.91535 232.433 1.8864C231.841 1.85745 231.211 1.8864 230.508 1.8864H230.545Z" fill="#FF0074"/>
</svg>
