<svg width="229" height="45" viewBox="0 0 229 45" fill="none" xmlns="http://www.w3.org/2000/svg">
<path fill-rule="evenodd" clip-rule="evenodd" d="M121.843 41.1925C124.966 41.8891 127.284 42.5161 129.702 42.8992C133.379 43.4913 137.007 43.8744 140.785 43.143C143.052 42.6902 145.42 42.5509 147.737 42.3071C148.291 42.2374 148.845 42.1329 149.4 42.1678C156.049 42.5161 162.649 41.8891 169.299 41.5408C170.81 41.4712 172.372 41.4712 173.883 41.4712C177.208 41.4712 180.533 41.3319 183.858 41.0532C188.846 40.6353 193.833 40.5308 198.82 40.9487C202.901 41.297 206.881 41.0881 210.81 40.6004C214.891 40.1128 219.022 39.6949 223.103 39.1028C223.758 38.9983 224.463 38.9286 225.118 38.7893C226.478 38.5455 227.284 38.023 226.982 36.9085C226.881 36.595 227.234 36.3512 227.687 36.4209C227.939 36.4209 228.191 36.595 228.342 36.7343C229.501 38.0579 229.148 39.2421 227.133 39.7994C225.722 40.1825 224.211 40.3915 222.7 40.6004C218.216 41.1926 213.732 41.7498 209.198 42.3419C205.873 42.7599 202.599 42.7599 199.274 42.4116C195.143 41.9588 190.961 41.924 186.83 42.3419C182.951 42.6902 179.072 42.6902 175.193 42.934C169.954 43.2823 164.664 43.143 159.425 43.6655C157.662 43.8396 155.798 43.8396 154.034 43.8048C149.45 43.6306 144.866 44.0138 140.382 44.6755C136.452 45.2328 132.624 45.0587 128.896 44.2576C124.916 43.352 120.835 42.7599 116.805 42.1678C115.596 41.9936 114.336 41.8195 113.127 41.8543C110.205 41.8543 107.334 41.9936 104.412 42.1329C101.238 42.2723 98.0642 42.0285 94.8904 41.8543C89.5 41.5409 84.1599 40.8791 78.719 40.9836C76.049 41.0184 73.4797 40.6701 70.9104 40.1476C67.0313 39.3814 63.1018 38.8938 59.0212 39.0331C58.064 39.0679 57.1068 38.9286 56.1497 38.8241C53.7819 38.5455 51.4645 38.6151 49.1471 39.0679C44.5627 39.9735 39.9783 40.3218 35.1924 39.9735C31.0614 39.6949 26.88 39.7994 22.6986 39.7994C19.9278 39.7994 17.157 39.66 14.4366 39.1376C13.4794 38.9635 12.5222 38.7196 11.565 38.7893C8.54234 38.9634 6.62797 37.7444 4.91512 36.3164C3.85718 35.4456 3.00075 34.4356 2.04356 33.4952C1.23752 32.6941 0.884868 31.7537 0.884868 30.7784C0.884868 29.9077 0.733734 29.0369 0.985624 28.201C2.04356 24.6832 1.59016 21.1306 1.69092 17.5779C1.7413 14.687 1.69092 11.831 1.69092 8.94011C1.69092 6.71101 1.38865 4.55155 0.229953 2.46176C-0.374584 1.41687 0.229953 0.580963 1.84205 0.267494C2.74886 0.0933452 3.75642 0.0585239 4.7136 0.0585239C14.1343 0.197843 23.555 -0.254961 33.0261 0.232657C34.6886 0.302317 36.3511 0.128164 38.0135 0.0933346C43.404 0.0933346 48.7944 0.197836 54.1849 0.894432C58.2655 1.41688 62.3965 1.6607 66.5275 2.18315C67.6359 2.32247 68.7442 2.35728 69.8525 2.35728C76.2505 2.18313 82.5478 2.9494 88.8954 3.2977C101.188 3.95947 113.43 5.07402 125.823 4.65606C131.465 4.48191 137.208 4.44706 142.85 5.074C145.722 5.38747 148.644 5.35264 151.515 4.83019C152.321 4.69087 153.178 4.58639 153.984 4.58639C161.893 4.72571 169.803 4.20326 177.662 4.58639C179.576 4.69088 181.49 4.96951 183.405 5.31781C185.319 5.66611 187.233 5.80545 189.148 5.80545C193.027 5.80545 196.906 5.73577 200.785 5.70094C201.087 5.70094 201.339 5.70094 201.591 5.70094C206.377 5.14366 211.264 5.17851 216.1 5.14368C217.057 5.14368 218.015 5.03919 218.972 4.89987C220.634 4.65606 222.246 4.30775 222.498 2.84489C222.498 2.60109 222.851 2.35728 223.103 2.11347C223.606 1.66068 224.866 1.69553 225.269 2.18315C226.125 3.26287 227.083 4.34258 227.737 5.45713C228.04 5.94475 227.889 6.60654 227.788 7.16381C227.385 9.9502 227.486 12.7018 227.989 15.4881C228.443 17.9611 228.443 20.4688 227.737 22.9417C226.831 26.2506 225.974 29.5594 225.773 32.9031C225.722 33.948 225.42 34.8535 223.405 34.6794C222.8 34.6445 222.448 35.0277 222.297 35.4108C222.095 35.8636 221.894 36.3164 221.742 36.804C221.491 37.5354 220.836 37.9534 219.828 38.1623C217.007 38.6848 214.236 39.3466 211.365 39.6252C207.385 40.0083 203.405 40.4263 199.375 40.3566C197.41 40.3566 195.495 40.3218 193.581 39.9735C189.652 39.3117 185.621 39.1724 181.591 39.2072C178.266 39.2072 174.941 39.2072 171.616 39.2072C169.551 39.2072 167.485 39.3466 165.42 39.5207C159.929 40.0432 154.337 39.9039 148.795 39.869C144.765 39.869 140.785 39.7645 136.755 40.1825C134.588 40.3915 132.321 40.3218 130.105 40.3218C127.586 40.3218 125.117 40.4959 121.843 41.1577V41.1925ZM200.735 38.9286C200.735 38.9286 200.735 38.6848 200.735 38.5803C202.548 38.5803 204.312 38.5803 206.125 38.5803C209.652 38.5803 212.977 38.023 216.352 37.4309C218.418 37.0478 219.828 36.386 220.08 34.7839C220.181 34.1221 220.685 33.4952 220.886 32.8682C221.793 30.047 222.649 27.2606 222.045 24.3349C221.188 20.2598 221.239 16.1151 222.045 12.0052C222.297 10.6816 222.347 9.32326 222.196 7.99972C222.095 6.92 221.339 6.50203 219.677 6.57169C218.871 6.60652 218.015 6.78066 217.208 6.81549C215.546 6.88515 213.883 7.09414 212.221 6.95482C209.551 6.71101 206.982 6.88517 204.362 7.16381C196.906 7.86041 189.4 7.54692 181.944 7.58175C181.39 7.58175 180.835 7.51209 180.281 7.44243C173.43 6.57169 166.528 6.11891 159.626 6.88517C158.518 6.98966 157.41 6.98965 156.301 6.98965C147.133 7.02448 138.014 7.05931 128.845 7.09414C127.737 7.09414 126.629 7.09414 125.52 6.95482C119.072 6.29305 112.573 6.04924 106.074 5.94475C104.009 5.94475 101.943 5.70096 99.8779 5.52681C94.7393 5.10885 89.6007 5.00434 84.5125 5.45713C80.7846 5.80543 77.0566 5.90993 73.3286 5.8751C68.8953 5.8751 64.462 5.80545 60.0288 5.80545C57.661 5.80545 55.3436 5.70095 52.9758 5.38748C50.6584 5.07402 48.2907 4.65604 45.9733 4.69087C36.8548 4.93468 27.686 3.88979 18.618 5.10884C16.1998 5.45714 13.6305 5.31782 11.162 5.10884C10.4567 5.03918 9.80179 4.89986 9.0965 4.86503C7.58516 4.79537 6.72873 5.283 6.52722 6.29307C6.42646 6.85034 6.47684 7.44244 6.52722 7.99972C6.57759 9.53223 6.72873 11.0647 6.72873 12.5973C6.82949 15.6623 6.72873 18.7273 7.38364 21.7923C7.68591 23.2204 7.73629 24.6832 7.28289 26.0764C6.37608 29.0021 7.4844 31.7885 8.03856 34.6446C8.39121 36.4557 9.95293 36.9433 12.623 36.4557C13.2779 36.3164 13.9328 36.1422 14.5877 36.0029C16.0487 35.6546 17.6104 35.5153 19.1217 35.7591C22.7993 36.386 26.5777 36.2119 30.3057 36.177C33.6306 36.177 36.9556 36.2119 40.2302 36.8388C44.0589 37.5702 47.8876 37.5703 51.7668 37.1523C53.2781 36.9782 54.7894 36.7343 56.3008 36.9781C59.7265 37.4658 63.2026 37.3613 66.6787 37.3961C69.1976 37.3961 71.6661 37.3961 74.1346 37.8837C80.8349 39.1376 87.6864 39.7645 94.5882 40.2173C98.165 40.4611 101.691 40.9139 105.319 40.3566C106.629 40.1477 108.089 40.3218 109.45 40.287C111.263 40.2173 113.077 40.2173 114.84 40.0432C125.974 38.8938 137.158 38.441 148.442 38.5803C152.17 38.6151 155.949 38.7196 159.677 38.4062C168.946 37.6399 178.216 37.9882 187.536 38.023C188.644 38.023 189.752 38.2668 190.81 38.3365C194.085 38.5455 197.41 38.7545 200.735 38.9634V38.9286ZM79.4243 4.4819C78.2153 3.88979 77.2581 4.06396 76.3009 4.06396C72.9759 4.06396 69.651 3.88979 66.3764 3.57632C63.5049 3.26285 60.6333 3.01906 57.7618 2.67076C52.5728 2.04382 47.3335 1.66069 42.0438 1.76518C35.948 1.86967 29.8523 1.69551 23.8069 1.34721C21.4895 1.20789 19.0714 1.17306 16.754 1.34721C12.7741 1.62585 8.79423 1.86968 4.76398 1.69553C4.7136 1.69553 4.61285 1.83484 4.56247 1.9045C4.56247 2.00899 4.56247 2.14831 4.66323 2.14831C8.59272 3.47184 12.7237 4.20326 17.1066 3.71564C22.5978 3.12353 28.089 2.81006 33.6306 2.94938C35.9984 3.01904 38.3662 3.01904 40.6836 2.94938C43.9078 2.84489 47.0312 2.98422 50.1547 3.50667C52.8751 3.95946 55.6459 4.09877 58.4167 4.09877C61.9935 4.09877 65.6207 4.09877 69.1976 4.44706C72.4722 4.76053 75.7971 4.55157 79.4243 4.51674V4.4819ZM3.55491 7.23346C3.55491 8.38285 3.55491 9.53222 3.55491 10.6816C3.45415 16.9858 4.05869 23.3248 3.05113 29.629C2.84961 30.7784 3.25264 31.9278 4.31058 32.9031C4.56247 33.1469 4.96549 33.321 5.36852 33.1469C5.57003 33.0772 5.67079 32.8334 5.67079 32.6592C5.4189 31.0571 4.66323 29.4201 4.86474 27.8179C5.62041 20.9216 4.46171 14.0601 3.60529 7.2683L3.55491 7.23346ZM16.4013 37.9534C20.5323 37.9882 24.1092 37.9534 27.686 38.0927C31.2629 38.1972 34.7893 38.7544 39.0211 38.4062C36.5526 37.7444 34.5374 37.6051 32.4719 37.6051C27.7868 37.5354 23.0512 37.7792 18.4165 37.2568C17.9127 37.1871 17.3081 37.2568 16.4517 37.9882L16.4013 37.9534ZM225.37 6.81549C224.916 7.68624 224.916 8.41767 225.37 9.46257C225.722 8.38284 225.874 7.68624 225.37 6.81549Z" fill="#FF0074"/>
</svg>
