<svg width="174" height="4" viewBox="0 0 174 4" fill="none" xmlns="http://www.w3.org/2000/svg">
<path fill-rule="evenodd" clip-rule="evenodd" d="M8.35639 2.05599C8.28233 2.2297 8.28233 2.40342 8.13422 2.49028C7.80096 2.664 7.46771 2.86666 7.0604 2.92457C5.28304 3.30095 3.50568 3.61943 1.72832 3.96687C1.43209 4.02477 1.09884 3.99582 0.839641 3.96687C0.43233 3.88001 0.136104 3.64839 0.0250189 3.30096C-0.0490377 2.98248 0.025019 2.63505 0.469359 2.49028C1.02478 2.28761 1.58021 2.05598 2.17266 1.99808C4.09813 1.88227 6.0236 1.82436 7.94907 1.79541C8.09719 1.79541 8.2453 1.96913 8.35639 2.08494V2.05599Z" fill="#FF0074"/>
<path fill-rule="evenodd" clip-rule="evenodd" d="M42.2741 1.62175C41.6076 1.56384 40.4968 1.50593 39.423 1.39012C39.0157 1.33221 38.7565 1.07164 38.7935 0.695249C38.8305 0.318863 39.2008 0.0872498 39.6081 0.116203C41.7187 0.232014 43.7923 0.376771 45.9029 0.550488C46.1991 0.550488 46.3843 0.811063 46.3473 1.07164C46.3473 1.18745 46.1621 1.36116 46.014 1.41907C44.9772 1.88231 43.8664 1.62175 42.3112 1.62175H42.2741Z" fill="#FF0074"/>
<path fill-rule="evenodd" clip-rule="evenodd" d="M76.1921 0.492432C77.0808 0.521384 77.7102 0.55034 78.3027 0.608245C78.8211 0.666151 79.3395 0.81092 79.3395 1.30312C79.3395 1.6795 78.8951 1.82427 78.4878 1.88217C77.0808 2.05589 75.6367 2.08484 74.2296 1.82427C73.8223 1.73741 73.452 1.56368 73.489 1.21625C73.489 0.839865 73.9704 0.69511 74.3777 0.637204C75.0812 0.550346 75.7848 0.550343 76.2291 0.521391L76.1921 0.492432Z" fill="#FF0074"/>
<path fill-rule="evenodd" clip-rule="evenodd" d="M28.7218 2.98243C28.0183 2.98243 27.3148 2.98243 26.6112 2.98243C26.5001 2.98243 26.315 2.75081 26.315 2.635C26.315 2.49024 26.3891 2.31652 26.5372 2.22966C26.7593 2.0849 27.0556 1.96908 27.3518 1.94013C28.944 1.85327 30.5362 1.88223 32.1284 1.56375C32.3136 1.5348 32.5358 1.56375 32.7209 1.5927C33.1282 1.67956 33.4985 1.88223 33.4615 2.22966C33.4615 2.40338 33.1282 2.635 32.906 2.69291C31.536 3.04034 30.1289 2.98243 28.7589 2.98243H28.7218Z" fill="#FF0074"/>
<path fill-rule="evenodd" clip-rule="evenodd" d="M17.132 3.32973C16.3174 3.32973 15.5027 3.32973 14.6881 3.32973C14.3549 3.32973 14.0957 3.21392 14.0216 2.95334C13.9105 2.69277 14.0957 2.4901 14.3549 2.37429C16.2803 1.62151 18.0947 1.96894 19.835 2.72172C19.9461 2.77962 20.0202 3.01124 19.9461 3.12705C19.9091 3.24286 19.6869 3.38763 19.5388 3.38763C18.7242 3.38763 17.9096 3.38763 17.0949 3.38763C17.0949 3.35868 17.0949 3.32973 17.0949 3.30077L17.132 3.32973Z" fill="#FF0074"/>
<path fill-rule="evenodd" clip-rule="evenodd" d="M138.622 2.51926C137.918 2.49031 137.215 2.72193 136.548 2.46136C136.4 2.40345 136.252 2.22974 136.215 2.11393C136.215 1.99811 136.252 1.73754 136.363 1.70859C138.067 1.21639 139.77 0.75315 141.547 1.36116C141.843 1.47697 141.954 1.70858 141.88 1.94021C141.843 2.08497 141.695 2.25869 141.547 2.28765C140.621 2.63508 139.585 2.46136 138.585 2.51926H138.622Z" fill="#FF0074"/>
<path fill-rule="evenodd" clip-rule="evenodd" d="M131.253 2.49026C129.624 2.51921 128.365 2.25863 127.143 1.79539C126.921 1.70853 126.699 1.41901 126.699 1.24529C126.699 0.839952 127.18 0.724141 127.551 0.782047C129.143 1.01367 130.735 1.24529 132.327 1.53481C132.475 1.53481 132.623 1.73749 132.66 1.88226C132.734 2.17178 132.438 2.31654 132.142 2.37445C131.772 2.46131 131.327 2.49026 131.216 2.49026H131.253Z" fill="#FF0074"/>
<path fill-rule="evenodd" clip-rule="evenodd" d="M108.481 0.376615C109.888 0.492426 111.11 0.492427 112.258 0.897766C112.628 1.04253 113.035 1.21624 112.887 1.59263C112.739 1.94006 112.295 1.96902 111.887 1.96902C110.443 1.99797 109.073 1.67948 107.703 1.33205C107.481 1.27415 107.185 1.01357 107.185 0.8109C107.185 0.376609 107.666 0.376609 108.036 0.347656C108.259 0.347656 108.444 0.347656 108.481 0.347656V0.376615Z" fill="#FF0074"/>
<path fill-rule="evenodd" clip-rule="evenodd" d="M55.7154 1.99809C55.1229 1.85333 54.0491 1.65066 53.0123 1.39009C51.8645 1.10056 51.309 0.724173 51.6423 0.463598C52.2347 0.0293068 52.9383 0.00035844 53.6048 0.174075C54.6416 0.43465 55.6784 0.782082 56.7152 1.10056C57.0114 1.18742 57.2706 1.39009 57.1595 1.62171C57.0854 1.79543 56.7522 1.88228 56.493 1.99809C56.4189 2.02704 56.3079 1.99809 55.6784 1.99809H55.7154Z" fill="#FF0074"/>
<path fill-rule="evenodd" clip-rule="evenodd" d="M154.803 0.695068C155.914 0.839832 157.136 0.955649 158.21 1.44785C158.58 1.62156 158.876 1.88214 158.617 2.22957C158.506 2.40329 158.099 2.57701 157.876 2.54806C156.692 2.37434 155.507 2.14271 154.322 1.91109C153.914 1.82423 153.618 1.62156 153.544 1.27413C153.47 0.984598 154.1 0.695075 154.803 0.724027V0.695068Z" fill="#FF0074"/>
<path fill-rule="evenodd" clip-rule="evenodd" d="M148.953 0.955811C149.804 1.01372 150.434 1.01372 151.026 1.07162C151.471 1.10058 151.804 1.3322 151.804 1.67963C151.804 2.02706 151.397 2.22974 151.026 2.31659C149.693 2.63507 148.434 2.46136 147.287 1.8244C147.175 1.73754 147.064 1.53487 147.101 1.41905C147.101 1.30324 147.287 1.10058 147.435 1.07162C148.027 1.01372 148.62 0.98477 148.99 0.98477L148.953 0.955811Z" fill="#FF0074"/>
<path fill-rule="evenodd" clip-rule="evenodd" d="M65.8983 2.11378C65.0097 1.70845 63.5285 2.49017 62.899 1.2452C63.9358 0.405573 65.1578 0.984622 66.3057 0.955669C66.787 0.955669 67.3054 1.04254 67.7868 1.15835C68.009 1.21625 68.2681 1.44787 68.3422 1.65054C68.4163 1.94007 68.12 2.08483 67.7868 2.11378C67.1943 2.14274 66.5648 2.11378 65.8613 2.11378H65.8983Z" fill="#FF0074"/>
<path fill-rule="evenodd" clip-rule="evenodd" d="M87.708 0.289673C88.5597 0.434437 89.6335 0.579206 90.7073 0.781876C90.9295 0.839781 91.1517 1.12931 91.1887 1.30303C91.1887 1.70837 90.7814 1.88208 90.3741 1.82418C89.1892 1.67941 88.0043 1.50569 86.8564 1.27407C86.6342 1.24511 86.375 0.955592 86.375 0.781876C86.338 0.376537 86.7823 0.318626 87.1897 0.289673C87.3007 0.289673 87.4118 0.289673 87.7451 0.289673H87.708Z" fill="#FF0074"/>
<path fill-rule="evenodd" clip-rule="evenodd" d="M120.33 2.0559C119.182 1.998 118.219 2.0559 117.516 1.47685C117.405 1.38999 117.368 1.18733 117.405 1.04256C117.442 0.897798 117.627 0.724074 117.738 0.695121C119.145 0.550357 120.515 0.839888 121.885 1.07151C121.996 1.07151 122.144 1.33209 122.107 1.4479C122.107 1.59266 121.959 1.79534 121.811 1.82429C121.218 1.9401 120.626 1.96905 120.293 2.02696L120.33 2.0559Z" fill="#FF0074"/>
<path fill-rule="evenodd" clip-rule="evenodd" d="M99.3349 0.000244141C100.298 0.0291969 101.223 -0.028714 101.927 0.492436C102.038 0.579294 102.112 0.781973 102.075 0.897784C102.075 1.04255 101.927 1.21626 101.779 1.27416C100.594 1.65055 99.446 1.36103 98.3351 1.04255C98.0389 0.955687 97.8538 0.78197 97.8908 0.521395C97.9278 0.26082 98.187 0.145004 98.4833 0.0870989C98.7795 0.0581462 99.0757 0.0291969 99.2979 0.000244141H99.3349Z" fill="#FF0074"/>
<path fill-rule="evenodd" clip-rule="evenodd" d="M173.003 1.94426C172.929 1.77054 172.929 1.59682 172.781 1.50996C172.447 1.33625 172.114 1.13358 171.707 1.07568C169.929 0.699292 168.152 0.380809 166.375 0.033376C166.079 -0.0245295 165.745 0.00442338 165.486 0.033376C165.079 0.120234 164.783 0.351855 164.671 0.699288C164.597 1.01777 164.671 1.3652 165.116 1.50996C165.671 1.71263 166.227 1.94426 166.819 2.00217C168.745 2.11798 170.67 2.17588 172.595 2.20483C172.744 2.20483 172.892 2.03111 173.003 1.9153V1.94426Z" fill="#FF0074"/>
</svg>
