<svg width="53" height="19" viewBox="0 0 53 19" fill="none" xmlns="http://www.w3.org/2000/svg">
<path fill-rule="evenodd" clip-rule="evenodd" d="M47.3241 9.67224C46.0074 9.12915 44.8395 8.18687 43.5731 7.36253C39.7784 4.75494 35.7773 2.65236 31.3774 1.15606C27.7645 -0.0845561 24.2107 0.078084 20.6623 0.860681C18.0377 1.45898 15.4326 2.27351 12.8925 3.15761C9.53456 4.28349 6.61779 6.3001 3.7419 8.30461C2.34485 9.29477 1.69667 10.8627 1.23622 12.4639C0.759007 14.1589 0.416541 15.8585 0.0861515 17.5988C-0.0720179 18.2671 0.289368 18.7375 0.917546 18.9069C1.58662 19.0643 2.11085 18.7318 2.29316 18.1451C2.64571 16.9309 3.22686 15.738 2.9633 14.3952C2.52067 11.9954 3.58246 10.172 5.51113 9.0247C9.03663 6.96135 12.3838 4.59552 16.5047 3.64367C19.5791 2.9124 22.6461 2.00572 25.8077 1.87023C27.1311 1.83419 28.3848 1.86317 29.6532 2.24295C33.136 3.34442 36.5035 4.65756 39.5614 6.72821C41.5117 8.06075 43.4787 9.29952 45.429 10.6321C46.2717 11.2265 47.0568 11.9267 47.854 12.6678C48.5211 13.2698 48.322 13.9502 47.4344 14.257C46.4121 14.5592 45.3897 14.8614 44.4203 15.1924C43.5448 15.54 42.6693 15.8876 41.8709 16.3456C41.3346 16.6374 41.0296 17.2603 41.2924 17.8485C41.5264 18.4897 42.2002 18.5126 42.7727 18.3433C43.2225 18.2103 43.6482 17.9957 44.0739 17.7811C45.2933 17.243 46.5034 16.974 47.8268 16.938C48.3946 16.9033 49.0154 16.8974 49.5591 16.7811C53.5285 15.9184 53.5578 13.9118 52.0204 11.5693C50.8035 9.70918 49.6563 7.78404 48.4803 5.91183C48.0948 5.35984 47.7549 4.66119 46.872 4.83341C46.3812 4.97848 46.3169 5.66346 46.7943 6.67666C47.0813 7.34658 47.438 7.95148 47.672 8.59266C47.7686 8.91929 47.8651 9.24593 47.365 9.66015L47.3241 9.67224Z" fill="#FF0074"/>
</svg>
