<svg width="108" height="2" viewBox="0 0 108 2" fill="none" xmlns="http://www.w3.org/2000/svg">
<path fill-rule="evenodd" clip-rule="evenodd" d="M100.825 1.17143C99.2736 1.15401 97.6651 1.17142 96.114 1.10175C89.5074 0.753369 82.8434 0.857888 76.2368 0.875306C70.2048 0.875306 64.2301 0.631439 58.313 0.370155C52.7979 0.126289 47.3978 -0.100157 41.8253 0.213384C36.8273 0.492087 31.7144 0.352734 26.7164 0.143706C22.1205 -0.0479021 17.5821 -0.0479021 12.9862 0.143706C9.99891 0.283058 7.0116 0.283059 4.02429 0.178545C3.22001 0.143707 2.47318 0.126287 1.66891 0.143706C0.749734 0.143706 -0.0545477 0.457252 0.00290068 0.753374C0.00290068 1.01466 0.462483 1.20627 1.26676 1.31078C1.554 1.34562 1.8987 1.39787 2.18594 1.36304C5.92009 1.08433 9.76912 1.36303 13.5033 1.06691C15.8586 0.89272 18.214 0.840465 20.5694 0.857884C25.1653 0.892722 29.7611 0.840463 34.2996 1.06691C35.2187 1.11917 36.1954 1.10175 37.1145 1.06691C41.9976 0.805625 46.8807 0.857888 51.8213 0.875306C53.7171 0.875306 55.6129 0.962396 57.4512 1.06691C64.4599 1.45013 71.5261 1.67657 78.6497 1.50238C79.5688 1.48496 80.5455 1.46755 81.4646 1.50238C87.7265 1.86818 94.1033 1.62432 100.365 1.95528C102.491 2.05979 104.789 1.95528 106.972 1.90303C107.316 1.90303 107.833 1.74625 107.948 1.64174C108.178 1.41529 107.604 1.27594 106.972 1.22368C106.225 1.154 105.421 1.11917 104.674 1.11917C103.41 1.11917 102.146 1.11917 100.882 1.11917L100.825 1.17143Z" fill="#FF0074"/>
</svg>
