<svg width="161" height="6" viewBox="0 0 161 6" fill="none" xmlns="http://www.w3.org/2000/svg">
<path fill-rule="evenodd" clip-rule="evenodd" d="M157.85 1.42376C157.254 1.42376 156.658 1.42376 156.162 1.42376C147.718 1.02737 139.473 1.1595 131.328 1.89942C130.533 1.9787 129.739 2.05798 128.944 2.05798C122.885 1.9787 117.123 2.24296 111.362 2.79791C108.581 3.06216 105.899 2.74505 104.011 2.13726C101.826 1.45018 99.5411 1.42375 96.7598 1.82014C92.4884 2.40151 88.2171 2.77148 83.3497 2.34866C80.8663 2.11083 78.4823 2.45437 76.3963 2.82433C72.1249 3.53783 68.2509 3.56425 64.6749 2.48079C63.3835 2.0844 61.7942 2.0844 60.3041 2.34866C57.8208 2.7979 55.2381 3.19429 52.2581 3.43213C49.4767 3.66996 46.7947 3.69639 44.808 3.03574C42.9207 2.42794 40.636 2.42794 38.1527 2.6922C36.6626 2.85076 35.0733 3.00931 33.5833 3.16787C30.7026 3.45855 27.6232 3.64354 24.7426 3.35285C20.9679 2.95646 18.4845 3.35285 16.1005 4.06635C13.9151 4.70057 11.4318 5.30837 8.55108 5.73119C4.18038 6.39183 0.306367 5.78403 0.00836499 4.46274C-0.0909691 3.85494 0.703709 3.32642 1.89572 2.82433C3.48506 2.13726 4.67707 2.05798 6.66375 2.6922C8.15376 3.16787 9.74311 3.22072 11.7298 3.08859C14.2131 2.93004 16.1005 2.50722 17.8885 2.05798C20.2725 1.42375 22.7559 1.13307 25.8352 1.74087C28.3186 2.21654 31.0006 2.13726 33.6826 1.873C35.4706 1.71444 37.358 1.55588 39.146 1.39733C41.9274 1.1595 44.6094 1.18593 46.6954 1.79372C49.6754 2.61293 52.6554 2.32224 55.6355 1.84657C57.5228 1.55588 59.1122 1.1595 60.9995 0.868813C63.1849 0.525276 64.7742 0.630976 66.7609 1.15949C67.3569 1.31805 67.6549 1.50303 68.2509 1.68802C69.7409 2.13726 71.6282 2.16368 73.5156 1.92585C75.5023 1.68802 77.3896 1.3709 79.0783 1.02737C81.065 0.630978 83.0517 0.525274 84.939 1.02737C87.025 1.58231 89.409 1.47661 91.7931 1.21235C94.2764 0.921663 96.7598 0.604551 99.2431 0.313866C102.72 -0.0825236 103.614 -0.00324551 106.395 0.763107C110.071 1.82014 110.865 1.89942 115.435 1.29163C118.415 0.895238 121.196 0.525276 124.673 0.895239C127.057 1.13307 129.54 0.842385 131.825 0.578126C135.103 0.181737 138.381 -0.108947 142.056 0.208164C143.546 0.340294 145.433 0.340293 146.923 0.181738C151.493 -0.293929 155.466 0.287439 159.738 0.525273C160.532 0.578125 161.228 0.763107 160.93 1.00094C160.632 1.1595 159.837 1.29162 159.142 1.39733C158.744 1.47661 158.049 1.47661 157.652 1.50303L157.85 1.42376Z" fill="#FF0074"/>
</svg>
