<svg width="243" height="42" viewBox="0 0 243 42" fill="none" xmlns="http://www.w3.org/2000/svg">
<path fill-rule="evenodd" clip-rule="evenodd" d="M135.756 41.9066C130.467 41.9066 125.178 41.9066 119.889 41.9066C115.878 41.9066 111.868 41.9066 107.915 41.5019C107.45 41.4396 106.985 41.4396 106.462 41.4396C97.8015 41.2528 89.1992 41.0037 80.5968 40.8792C75.7725 40.7858 71.0645 40.4744 66.2402 40.2876C59.5559 40.0386 52.8136 40.0386 46.1874 39.3536C35.0276 38.2328 23.9841 36.7695 13.7542 34.0298C9.51119 32.909 6.08188 31.2589 2.88506 29.4531C2.0132 28.955 1.37384 28.3323 0.792596 27.7408C-0.369883 26.4954 -0.253627 25.3123 1.14135 24.067C3.23381 22.1989 5.90751 20.6734 9.33683 19.4592C16.4861 16.9373 24.2165 15.1316 32.1795 13.5126C36.0738 12.7343 39.8519 11.8003 43.7462 11.0219C48.6868 10.0568 53.6273 9.06051 58.7422 8.25104C68.8558 6.66322 79.0856 5.19993 89.2573 3.70551C100.068 2.11769 111.17 1.27708 122.272 0.592141C134.71 -0.217336 147.207 -0.030537 159.645 0.187399C174.525 0.436469 189.231 1.74409 203.703 3.67438C212.596 4.85746 221.082 6.60095 228.871 9.27845C233.637 10.9285 237.822 12.8588 240.67 15.5363C243.17 17.9336 243.46 20.4243 242.472 23.0084C241.891 24.5651 240.089 25.8105 237.764 26.8067C234.8 28.1144 231.719 29.3286 228.174 30.2003C224.802 31.0098 221.664 31.9438 218.874 33.3137C214.747 35.3063 209.748 36.4271 204.459 37.2988C195.392 38.7932 186.15 39.7584 176.792 40.4744C173.305 40.7547 169.817 41.066 166.388 41.3773C157.96 42.1557 149.474 41.9066 140.988 42C139.244 42 137.442 42 135.698 42V41.9377L135.756 41.9066ZM94.0816 4.63952C94.6628 4.63952 95.3022 4.70179 95.8834 4.70179C102.103 4.70179 108.38 4.76406 114.599 4.70179C122.795 4.63952 130.932 4.95086 139.011 5.449C149.183 6.10281 159.297 6.91229 169.352 7.8463C180.396 8.84258 191.381 10.0568 202.25 11.3955C203.471 11.5512 204.75 11.7691 205.912 11.9871C207.133 12.2362 208.237 12.5786 209.109 13.1079C209.341 13.2636 209.458 13.606 209.283 13.7928C209.109 14.073 208.47 14.1353 208.063 13.9796C204.692 12.7032 200.681 12.3918 196.787 11.8937C183.709 10.2125 170.456 9.09165 157.204 7.87743C155.344 7.69063 153.426 7.56609 151.508 7.44156C144.359 7.00569 137.21 6.56981 130.06 6.16508C128.317 6.07167 126.573 5.94714 124.829 5.91601C116.169 5.85374 107.566 5.76034 98.9059 5.82261C90.4198 5.88488 81.9918 6.28961 73.7382 7.47269C64.7871 8.74918 55.7198 9.86999 47.0012 11.6135C44.56 12.0805 42.0025 12.5164 40.2588 13.5126C35.6089 16.0967 30.8427 18.6497 27.5296 21.8565C26.3671 22.9773 25.4372 24.1604 25.0303 25.468C24.5072 27.1492 25.0303 28.6748 27.0646 30.0758C28.9827 31.3523 30.9008 32.5976 33.7489 33.3137C35.202 33.6562 36.4807 34.1854 37.7594 34.7147C39.7938 35.5865 42.0606 36.2091 44.4437 36.6761C49.268 37.6413 54.2666 38.3574 59.3816 38.6064C69.3789 39.0734 79.4925 39.5716 89.4898 39.6961C106.753 39.8829 124.074 39.7584 141.336 39.7272C142.906 39.7272 144.533 39.665 146.103 39.5716C152.264 39.1668 158.425 38.6064 164.644 38.2951C173.886 37.797 182.953 36.8007 192.079 35.8044C200.913 34.8392 209.341 33.2514 217.711 31.4768C222.361 30.5117 224.628 28.5502 226.023 26.1841C226.72 24.9699 226.43 23.8179 224.337 22.9462C223.175 22.4792 222.012 21.981 221.257 21.3272C219.339 19.7394 216.374 18.8988 213.41 18.0582C208.063 16.5015 202.367 15.3495 196.554 14.3221C195.217 14.073 193.88 13.7928 192.544 13.5126C192.369 13.4815 192.311 13.2324 192.311 13.1079C192.311 13.0768 192.544 12.9834 192.66 12.9834C194.113 12.89 195.508 13.139 196.903 13.3881C200.507 14.073 204.168 14.758 207.772 15.4429C213.41 16.5015 218.351 18.2761 223.233 20.0819C227.767 21.7319 229.336 24.5028 227.709 27.0869C227.302 27.7096 225.849 28.488 226.779 28.9238C227.999 29.5465 229.394 28.7059 230.499 28.3323C232.417 27.7096 234.277 27.0247 235.904 26.2152C240.845 23.849 242.24 20.8913 239.566 17.6223C237.357 14.9137 234.219 12.5164 229.51 10.9285C223.291 8.81144 216.956 6.88116 209.69 5.85374C205.04 5.19993 200.39 4.63953 195.74 4.01685C183.418 2.33563 170.863 1.61955 158.25 1.33935C143.022 0.996879 127.852 1.21481 112.739 2.33563C106.694 2.80263 100.766 3.39417 94.8372 4.11025C94.3722 4.17252 93.9072 4.26592 93.9072 4.67066L94.0816 4.63952ZM40.4913 37.3299C40.4913 37.3299 40.3169 36.9563 40.0844 36.8941C38.2826 36.3648 36.4807 35.7733 34.5626 35.3374C29.9708 34.2477 27.0065 32.224 24.1003 30.1692C23.5772 29.7644 23.1122 29.2352 22.996 28.7682C22.2403 26.1529 22.4728 23.6 25.3209 21.3583C27.2971 19.8017 29.5058 18.3384 31.6564 16.8439C32.2377 16.4392 32.877 16.0345 33.4002 15.6297C33.5745 15.5052 33.5745 15.225 33.4002 15.1627C33.1095 15.0071 32.6445 14.8514 32.2377 14.8514C31.7727 14.8514 31.3077 14.9448 30.8427 15.0071C23.2284 16.4081 16.1373 18.3695 9.51119 20.7979C7.53498 21.5451 5.9075 22.4792 4.39628 23.5066C1.95507 25.1567 1.89694 27.4294 5.09376 29.0484C10.3249 31.6636 16.1373 33.7807 22.8797 35.026C28.4596 36.0535 34.272 36.7073 40.0263 37.4856C40.1425 37.4856 40.2588 37.3922 40.4331 37.3611L40.4913 37.3299ZM210.271 34.2788C209.632 34.3411 209.051 34.3722 208.47 34.4656C196.612 36.6139 184.464 38.046 172.084 38.9178C164.702 39.447 157.32 39.9763 149.939 40.5056C153.136 40.7235 156.274 40.7235 159.471 40.5367C167.725 40.0697 175.92 39.4159 184.116 38.6687C191.672 37.9837 199.228 37.2054 206.435 35.7421C207.888 35.4308 209.458 35.2751 210.271 34.2788Z" fill="#FF0074"/>
</svg>
