<svg width="80" height="3" viewBox="0 0 80 3" fill="none" xmlns="http://www.w3.org/2000/svg">
<path fill-rule="evenodd" clip-rule="evenodd" d="M78.4349 0.711878C78.1388 0.711878 77.8426 0.711878 77.5958 0.711878C73.4003 0.513683 69.3036 0.579748 65.2562 0.949711C64.8613 0.98935 64.4664 1.02899 64.0716 1.02899C61.0607 0.98935 58.1979 1.12148 55.3351 1.39895C53.9531 1.53108 52.6204 1.37253 51.6826 1.06863C50.5967 0.725091 49.4614 0.711877 48.0794 0.910072C45.957 1.20076 43.8346 1.38574 41.416 1.17433C40.182 1.05542 38.9974 1.22718 37.9609 1.41217C35.8385 1.76892 33.9135 1.78213 32.1366 1.2404C31.4949 1.0422 30.7052 1.0422 29.9648 1.17433C28.7308 1.39895 27.4475 1.59715 25.9668 1.71606C24.5847 1.83498 23.252 1.84819 22.2649 1.51787C21.3271 1.21397 20.1918 1.21397 18.9578 1.3461C18.2175 1.42538 17.4277 1.50466 16.6873 1.58393C15.2559 1.72928 13.7258 1.82177 12.2944 1.67643C10.4188 1.47823 9.18484 1.67642 8.00024 2.03317C6.91435 2.35029 5.68038 2.65419 4.24899 2.86559C2.07721 3.19592 0.152232 2.89202 0.00415652 2.23137C-0.045202 1.92747 0.349669 1.66321 0.941972 1.41217C1.73171 1.06863 2.32401 1.02899 3.31118 1.3461C4.05156 1.58394 4.8413 1.61036 5.82847 1.5443C7.06243 1.46502 8.00024 1.25361 8.88869 1.02899C10.0733 0.711877 11.3073 0.566536 12.8374 0.870434C14.0713 1.10827 15.404 1.06863 16.7367 0.936498C17.6252 0.85722 18.563 0.777942 19.4514 0.698664C20.8335 0.579748 22.1661 0.592963 23.2027 0.896861C24.6834 1.30646 26.1642 1.16112 27.6449 0.923285C28.5828 0.777942 29.3725 0.579749 30.3103 0.434406C31.3962 0.262638 32.1859 0.315488 33.1731 0.579747C33.4693 0.659025 33.6173 0.751517 33.9135 0.844008C34.6539 1.06863 35.5917 1.08184 36.5295 0.962925C37.5167 0.844008 38.4545 0.685452 39.2936 0.513684C40.2807 0.315489 41.2679 0.262637 42.2057 0.513684C43.2423 0.791156 44.4269 0.738304 45.6115 0.606174C46.8454 0.460831 48.0794 0.302275 49.3134 0.156933C51.0409 -0.0412618 51.4851 -0.00162276 52.8672 0.381553C54.6934 0.910072 55.0883 0.949712 57.3588 0.645814C58.8396 0.447619 60.2216 0.262638 61.9491 0.44762C63.1338 0.566536 64.3677 0.421193 65.503 0.289063C67.1318 0.0908684 68.7606 -0.0544734 70.5869 0.104082C71.3273 0.170147 72.2651 0.170147 73.0055 0.0908689C75.2759 -0.146965 77.2503 0.14372 79.3727 0.262636C79.7676 0.289062 80.1131 0.381554 79.965 0.50047C79.8169 0.579748 79.4221 0.645812 79.0766 0.698664C78.8791 0.738303 78.5336 0.738304 78.3362 0.751517L78.4349 0.711878Z" fill="#FF0074"/>
</svg>
