<svg width="163" height="2" viewBox="0 0 163 2" fill="none" xmlns="http://www.w3.org/2000/svg">
<path fill-rule="evenodd" clip-rule="evenodd" d="M10.8293 0.828574C13.1704 0.845993 15.5981 0.828576 17.9391 0.898252C27.9101 1.24663 37.9678 1.14211 47.9388 1.12469C57.0428 1.12469 66.0601 1.36856 74.9906 1.62985C83.3142 1.87371 91.4645 2.10016 99.8748 1.78662C107.418 1.50791 115.135 1.64727 122.678 1.85629C129.614 2.0479 136.464 2.0479 143.4 1.85629C147.909 1.71694 152.418 1.71694 156.926 1.82145C158.14 1.85629 159.267 1.87371 160.481 1.85629C161.868 1.85629 163.082 1.54275 162.996 1.24663C162.996 0.985341 162.302 0.793733 161.088 0.689219C160.655 0.654382 160.134 0.602127 159.701 0.636965C154.065 0.915668 148.256 0.636968 142.62 0.933091C139.065 1.10728 135.51 1.15954 131.955 1.14212C125.019 1.10728 118.083 1.15954 111.233 0.933091C109.846 0.880834 108.372 0.898253 106.985 0.933091C99.6147 1.19438 92.2448 1.14211 84.7882 1.12469C81.927 1.12469 79.0657 1.0376 76.2912 0.933091C65.7132 0.549873 55.0486 0.323427 44.2973 0.497616C42.91 0.515035 41.436 0.532454 40.0487 0.497616C30.5979 0.131818 20.9737 0.37568 11.523 0.0447196C8.3149 -0.0597942 4.84674 0.0447175 1.55197 0.0969744C1.03174 0.0969744 0.251389 0.253748 0.0779724 0.358261C-0.268845 0.584708 0.598221 0.724063 1.55197 0.77632C2.67912 0.845995 3.89297 0.880829 5.02013 0.880829C6.92763 0.880829 8.83511 0.880829 10.7426 0.880829L10.8293 0.828574Z" fill="#FF0074"/>
</svg>
