<svg width="163" height="2" viewBox="0 0 163 2" fill="none" xmlns="http://www.w3.org/2000/svg">
<path fill-rule="evenodd" clip-rule="evenodd" d="M152.171 1.17143C149.83 1.15401 147.402 1.17142 145.061 1.10175C135.09 0.753369 125.032 0.857888 115.061 0.875306C105.957 0.875306 96.9399 0.631439 88.0094 0.370155C79.6858 0.126289 71.5355 -0.100157 63.1252 0.213384C55.5819 0.492087 47.8652 0.352734 40.3219 0.143706C33.3856 -0.0479021 26.5359 -0.0479021 19.5996 0.143706C15.091 0.283058 10.5823 0.283059 6.07369 0.178545C4.85983 0.143707 3.73268 0.126287 2.51881 0.143706C1.13154 0.143706 -0.0823266 0.457252 0.00437787 0.753374C0.00437787 1.01466 0.698007 1.20627 1.91187 1.31078C2.34539 1.34562 2.86563 1.39787 3.29916 1.36304C8.93494 1.08433 14.7441 1.36303 20.3799 1.06691C23.9348 0.89272 27.4897 0.840465 31.0446 0.857884C37.9809 0.892722 44.9173 0.840463 51.7669 1.06691C53.1542 1.11917 54.6282 1.10175 56.0154 1.06691C63.3853 0.805625 70.7552 0.857888 78.2118 0.875306C81.073 0.875306 83.9343 0.962396 86.7088 1.06691C97.2868 1.45013 107.951 1.67657 118.703 1.50238C120.09 1.48496 121.564 1.46755 122.951 1.50238C132.402 1.86818 142.026 1.62432 151.477 1.95528C154.685 2.05979 158.153 1.95528 161.448 1.90303C161.968 1.90303 162.749 1.74625 162.922 1.64174C163.269 1.41529 162.402 1.27594 161.448 1.22368C160.321 1.154 159.107 1.11917 157.98 1.11917C156.072 1.11917 154.165 1.11917 152.257 1.11917L152.171 1.17143Z" fill="#FF0074"/>
</svg>
