<svg width="188" height="36" viewBox="0 0 188 36" fill="none" xmlns="http://www.w3.org/2000/svg">
<path d="M93.8862 22.7316C93.8862 15.0302 99.9822 9.55273 108.576 9.55273C114.384 9.55273 118.823 12.1498 120.57 16.5884L113.629 20.1346C112.401 17.7217 110.607 16.6876 108.529 16.6876C105.412 16.6876 102.957 18.8597 102.957 22.7316C102.957 26.6981 105.412 28.8702 108.529 28.8702C110.607 28.8702 112.401 27.8313 113.629 25.4231L120.57 28.9646C118.823 33.4032 114.384 36.0003 108.576 36.0003C99.9822 36.0003 93.8862 30.5228 93.8862 22.7316Z" fill="white"/>
<path d="M140.643 9.97754V17.6318C139.84 17.5326 132.469 17.5468 132.469 23.8175V35.5751H123.497V9.97754H132.044V13.0468C133.89 10.733 136.865 9.97754 140.643 9.97754Z" fill="white"/>
<path d="M143.854 35.5751H152.4V16.9991C152.4 15.1368 151.661 13.3509 150.344 12.0341C149.027 10.7173 147.241 9.97754 145.379 9.97754H143.854V35.5751Z" fill="white"/>
<path d="M187.541 20.9374C187.541 13.0045 183.145 9.55282 177.195 9.55282C174.7 9.506 172.257 10.268 170.23 11.7249C172.667 11.9752 178.121 13.0093 178.258 19.9269C178.258 20.5549 178.296 35.5707 178.296 35.5707H187.541V20.9374Z" fill="white"/>
<path d="M170.23 20.9374C170.23 13.0045 165.834 9.55282 159.885 9.55282C157.389 9.506 154.946 10.268 152.92 11.7249C155.351 11.9752 160.805 13.0093 160.947 19.9269C160.947 20.5549 160.985 35.5707 160.985 35.5707H170.23V20.9374Z" fill="white"/>
<path d="M8.73557 10.2466C8.73557 7.97534 9.82162 6.89402 11.7104 6.89402C12.6576 6.92047 13.5836 7.17996 14.4066 7.64953L16.6212 1.32214C15.1574 0.424974 12.8437 0 10.6716 0C3.82476 0 0 4.01364 0 10.1522V35.4664H8.97167V17.5231H14.8316V10.8132H8.73557V10.2466Z" fill="#FF0074"/>
<path d="M36.0614 25.0265H25.4465C26.202 27.6236 28.4213 29.1346 31.7266 29.1346C32.8082 29.1724 33.8866 28.9957 34.8996 28.6148C35.9127 28.2339 36.8403 27.6563 37.629 26.9153L42.351 31.8261C39.8956 34.5648 36.3069 35.9814 31.4433 35.9814C22.33 35.9814 16.4229 30.3623 16.4229 22.7128C16.4229 15.0632 22.4244 9.55273 30.4989 9.55273C36.3541 9.55273 39.7256 11.7012 41.6474 14.3974C44.8205 18.8549 41.553 25.0265 36.0614 25.0265ZM25.3048 20.3046H32.6191C33.0191 20.312 33.4112 20.1922 33.7388 19.9624C34.0664 19.7326 34.3125 19.4047 34.4418 19.026C34.571 18.6473 34.5766 18.2374 34.4578 17.8553C34.3389 17.4732 34.1018 17.1387 33.7807 16.9001C32.8365 16.2322 31.7023 15.8861 30.5461 15.9132C27.7602 15.9321 25.8242 17.632 25.3048 20.3046Z" fill="#FF0074"/>
<path d="M46.6149 35.5751H55.1616V16.9991C55.1616 15.1409 54.425 13.3585 53.1134 12.0424C51.8017 10.7263 50.0218 9.98379 48.1637 9.97754H46.6149V35.5751Z" fill="#FF0074"/>
<path d="M90.3022 20.9373C90.3022 13.0045 85.9061 9.55276 79.9564 9.55276C77.4613 9.50663 75.0181 10.2686 72.9916 11.7248C75.4281 11.9751 80.8819 13.0092 81.0189 19.9268C81.0189 20.5549 81.0566 35.5706 81.0566 35.5706H90.3022V20.9373Z" fill="#FF0074"/>
<path d="M72.9916 20.9374C72.9916 13.0045 68.5955 9.55282 62.6459 9.55282C60.1507 9.506 57.7073 10.268 55.681 11.7249C58.1175 11.9752 63.5714 13.0093 63.7083 19.9269C63.7083 20.5549 63.7461 35.5707 63.7461 35.5707H72.9916V20.9374Z" fill="#FF0074"/>
</svg>
