<svg width="111" height="90" viewBox="0 0 111 90" fill="none" xmlns="http://www.w3.org/2000/svg">
<path d="M13.4715 31.1393C13.2754 31.1918 13.0243 32.3719 12.5457 33.4871L12.3364 39.8424C11.0046 45.3017 10.1799 48.1054 9.19969 48.3681C8.20723 48.1931 7.01348 48.051 6.56203 46.3661C6.22597 46.8019 5.99517 47.3092 5.88764 47.8487C6.15011 48.8283 6.69059 49.3554 8.16996 50.0928L9.2615 50.0103C11.6337 49.3747 13.1955 43.8328 14.3806 31.6306L13.5226 31.2515L13.4715 31.1393ZM23.327 21.6532L23.6081 21.6829C20.7458 22.4498 19.2261 23.13 12.4594 27.1269C5.7327 30.5671 2.43694 31.9122 1.91962 34.8435C2.01002 35.6716 2.30728 36.4636 2.78405 37.1467C3.26083 37.8298 3.90183 38.3821 4.64813 38.7529C5.35497 38.3325 6.02925 38.0259 5.65857 37.3483C3.67655 35.9895 3.01749 34.5493 4.76617 34.0178C5.64185 32.5023 5.86972 32.8822 6.07316 32.3867C16.3047 26.2645 20.5759 23.7762 24.3064 23.1126C24.3379 23.2302 24.8623 23.3836 26.1527 23.4158L26.1059 22.3785L25.9221 21.6928C25.0312 21.7328 24.1388 21.7266 23.2486 21.6742" fill="#FF0074"/>
<path d="M17.0972 40.4356C17.1709 39.7573 17.3792 39.1004 17.71 38.5035C18.0407 37.9065 18.4872 37.3814 19.0233 36.9588C20.4554 33.6774 21.9727 33.1449 23.247 32.8034L24.5409 32.4567C24.9331 32.7199 25.2962 33.0237 25.6243 33.3633L26.1276 34.6143C26.2703 36.0114 26.2673 37.4196 26.1189 38.8162C25.621 40.3524 24.7487 41.7409 23.5804 42.8567C22.4122 43.9725 20.9847 44.7804 19.4266 45.2078C18.9168 45.3444 18.4183 44.974 17.901 44.0628L17.4502 43.0077C17.0491 41.9813 16.6396 41.6291 17.1801 40.9803L17.0972 40.4356ZM22.5159 31.1725C21.2502 31.4089 20.0809 32.0092 19.1513 32.8998C18.2217 33.7904 17.5722 34.9326 17.2824 36.1864L16.4334 36.9389C16.2178 36.9966 16.1767 37.7846 16.0199 37.8266C15.308 39.6577 15.1146 41.6493 15.461 43.5827L15.832 44.5752C17.0694 46.4484 18.3866 47.2083 19.7394 46.8458C22.339 46.2055 24.5983 44.6019 26.0597 42.3596C28.025 38.8723 28.5634 36.0194 27.6198 33.7525L27.2519 33.2422C27.2519 33.2422 27.1731 32.9483 27.0471 32.4781C25.6602 31.3799 24.8684 30.5422 22.4962 31.1778" fill="#FF0074"/>
<path d="M37.2222 27.3998C35.8857 28.1457 34.727 29.1726 33.8262 30.4096C33.6301 30.4621 33.2195 30.3411 32.5642 30.0128L32.1525 30.1231L31.4638 31.6305C31.3809 33.7525 31.0591 34.8256 30.5886 34.9516C28.6537 38.7877 28.169 41.6053 28.8637 43.4139C29.5481 44.0075 30.049 44.2302 30.4019 44.1357C31.5972 43.1855 32.2919 41.1515 32.4273 38.0496C32.2634 35.0068 34.0578 31.9013 37.757 28.7684L38.0707 28.6843C38.6042 28.7933 38.8829 28.9706 38.9445 29.1221L39.0757 29.6119C39.5876 30.7906 38.8677 32.4953 36.9159 34.7261C36.4783 36.0908 36.4889 37.5595 36.9464 38.9175C37.399 39.1951 37.6672 39.3333 37.7652 39.307L38.4905 39.1126C40.8472 32.2239 42.8228 28.5659 44.4173 28.1386C44.5011 28.1101 44.5927 28.115 44.673 28.1521C44.7533 28.1892 44.8163 28.2557 44.8489 28.3379L45.1586 29.4938C43.884 33.3629 43.4262 35.7323 43.8456 36.6699L43.94 37.0225C44.5652 38.4928 45.9605 38.9169 48.0582 38.3548L50.7245 37.6404C51.9988 37.2989 52.6377 36.9387 52.4204 36.598L52.2576 35.9907C52.0497 36.0326 51.8355 36.0329 51.6275 35.9916L50.6304 36.4267L49.9639 36.6053L49.4853 36.5446L49.5326 36.7209C47.3957 37.2935 46.2505 37.4113 46.1207 37.0052L45.5939 35.8235L45.3787 35.0202C46.766 31.4148 47.1674 28.9135 46.5581 27.502C45.9487 26.0905 45.3746 25.9083 44.5316 26.1342C43.1239 26.8273 41.9201 27.8734 41.0376 29.1702L40.7827 29.2385C40.0659 27.5828 39.1095 26.9151 37.9332 27.2303L37.2222 27.3998Z" fill="#FF0074"/>
<path d="M54.9003 33.855C54.4456 32.1308 54.4904 30.3129 55.0295 28.6129C56.8002 25.2618 58.2808 23.4162 59.5159 23.0853L60.7706 22.7491C61.0914 23.0276 61.3956 23.3247 61.6815 23.6389L62.0279 24.9319C62.0786 26.1498 61.9597 27.3688 61.6747 28.5541C59.6355 32.6282 57.239 35.0551 54.4355 35.8063C53.965 35.9324 53.5253 35.5462 53.1452 34.5982L52.867 33.5599C52.7158 33.1225 52.67 32.6556 52.7334 32.1971C52.7968 31.7387 52.9675 31.3016 53.2317 30.9214L52.876 30.8488C52.9003 31.5323 52.9841 32.2124 53.1265 32.8814L53.2105 33.1949L53.6599 34.1663L54.9003 33.855ZM58.9808 21.4018C57.0203 21.9272 55.2551 24.122 53.5176 27.9891L52.6585 27.8414C52.4991 27.9812 52.3134 28.088 52.1124 28.1557C51.2493 30.0028 50.8553 32.0341 50.9654 34.0694L51.2383 35.0881C52.2012 37.0349 53.3225 37.8473 54.636 37.4954C57.2707 36.8018 59.5733 35.195 61.1328 32.9619C63.3725 29.4011 64.1657 26.4798 63.5358 24.1289L63.2267 23.6028C63.2267 23.6028 63.148 23.3089 63.1789 22.7967C62.7589 21.2294 61.353 20.7662 58.9808 21.4018Z" fill="#FF0074"/>
<path d="M65.4128 28.9383C65.7113 26.7586 65.9862 25.824 67.2213 25.4931C68.978 25.1484 70.1332 25.9307 70.4125 26.7378C70.6604 27.5028 70.7257 28.3154 70.603 29.1103C70.4803 29.9052 70.1731 30.6605 69.706 31.3156L67.6155 32.6106L65.9632 32.7174L65.301 30.7951L65.4128 28.9383ZM66.8118 23.965C67.1728 19.8446 68.8976 15.9615 71.7135 12.9296L71.9292 12.8719C72.2495 12.891 72.4378 12.9665 72.4641 13.0645L72.5323 13.3192L72.6058 13.5935C70.6285 18.1338 69.5245 21.3063 66.9687 23.923M72.2655 10.598C71.0696 10.9184 69.2665 13.2074 67.8435 16.4443C64.6151 23.6087 63.355 28.9438 64.0801 32.2771L64.1326 32.473C64.5788 34.1382 65.7351 34.6893 66.9898 34.3531C68.5556 34.1725 70.0175 33.478 71.1464 32.3784C71.7313 31.6497 72.1335 30.7918 72.3195 29.8763C72.5055 28.9608 72.4699 28.0143 72.2157 27.1155C71.6232 25.5315 71.465 24.314 69.0187 24.0456L69.2978 23.3619C72.6908 18.6941 74.7067 13.5135 74.0224 11.744C73.9437 11.4502 73.4883 11.0053 72.3243 10.5822L72.2655 10.598Z" fill="#FF0074"/>
<path d="M86.7398 13.8799C84.8485 16.6402 83.5387 19.7559 82.8899 23.0376C79.0022 27.2709 76.2396 29.586 74.73 29.9905C74.4947 30.0535 74.31 29.5991 74.2253 28.6559L74.1431 27.565C74.5226 25.2256 75.1717 22.9378 76.0776 20.7474C75.8309 19.8266 75.5977 19.4271 75.1272 19.5532L74.8332 19.632C74.4215 19.7423 74.0888 20.4614 73.8902 21.8375C72.9579 24.1137 72.4688 26.5467 72.449 29.0059C72.5612 31.3066 73.3151 32.2384 74.7463 31.8549L75.0404 31.7761C76.6741 31.3384 79.4432 28.9166 83.3477 24.5108C82.6811 24.6894 82.4655 24.7471 82.7886 24.9335L82.7069 25.6483C82.6794 26.4094 82.924 27.1552 83.3967 27.7522C83.4939 29.448 85.0174 29.8797 87.9581 29.0917C88.7666 28.9028 89.515 28.5146 90.135 27.9625C90.1148 27.338 89.8935 27.0613 89.3968 27.0894L88.1225 27.4309C85.8483 28.0402 84.6683 27.2436 84.5183 25.037L84.4448 24.7627C84.8089 21.2853 86.0964 17.9681 88.174 15.1544L87.7803 13.6851L86.7398 13.8799Z" fill="#FF0074"/>
<path d="M105.642 10.159C104.727 11.1389 104.182 12.083 103.531 15.8481C103.071 16.6431 102.177 21.4603 98.5576 23.4799L98.1655 23.585C97.917 22.6236 97.8207 21.6291 97.8801 20.6378C98.9407 17.7638 99.464 14.7197 99.4241 11.657L99.3768 11.4807C99.1843 11.1544 98.6886 10.9512 97.929 10.8608C96.9262 14.1615 96.1646 17.5306 95.6501 20.9414C94.0381 23.4731 92.8827 25.0425 91.9809 25.2841L91.8437 25.3209C91.8437 25.3209 91.6448 25.2062 91.4537 24.9635C91.2626 24.7207 91.1789 24.7221 91.5085 23.5209L92.4097 21.4737C92.6993 20.8291 91.8269 20.4749 91.3144 20.4443L90.9419 20.5441C90.3734 20.6964 90.2665 22.2579 89.6749 25.4611C89.8404 25.9007 90.1339 26.2807 90.5174 26.5522C90.901 26.8236 91.3571 26.9741 91.827 26.9842C92.6781 26.687 93.4692 26.2404 94.1632 25.6653C94.7819 24.8192 95.449 24.0095 96.161 23.2402C96.371 24.0238 97.141 25.3293 97.7869 25.3872L98.0026 25.3295C99.2202 24.9247 100.344 24.2802 101.309 23.434C102.273 22.5877 103.058 21.557 103.616 20.4026C103.701 21.0248 103.743 21.652 103.741 22.2799C103.842 23.1119 104.127 23.9108 104.578 24.6175L106.023 23.8943C105.407 21.7666 105.202 19.5408 105.421 17.3363C105.056 14.3265 107.33 11.9114 106.983 10.6184C106.899 10.305 106.384 10.1071 105.644 10.0114" fill="#FF0074"/>
<path d="M18.919 75.5791C19.3751 75.4244 19.7806 75.1488 20.0922 74.7818C20.2591 71.7974 20.4515 69.4571 20.6904 67.8393C21.4371 68.0381 22.8714 68.1368 23.2238 68.9032C24.5931 71.896 25.5675 73.6506 27.9789 73.0045C28.4673 72.8875 28.9241 72.6648 29.317 72.352L30.2924 71.2088C31.0936 70.3912 31.811 69.4956 32.4337 68.5352L31.7375 67.8189L30.0132 69.2258L28.2553 70.9777C28.1571 71.1132 28.0329 71.2278 27.8899 71.3148C27.7468 71.4017 27.5879 71.4593 27.4223 71.4841C27.2568 71.5089 27.0879 71.5004 26.9257 71.4592C26.7635 71.418 26.6112 71.3448 26.4776 71.244C25.9963 71.016 25.6217 70.4025 25.5041 70.434C24.218 65.6342 22.0278 66.557 20.902 66.3547C22.2809 64.7142 23.8825 63.2744 25.6603 62.0771C26.915 61.7409 27.7783 62.1395 28.109 63.3737L28.8147 63.1846L29.2849 62.7437C28.6917 60.5299 27.594 59.6481 25.9276 60.0947C23.8832 61.5207 22.0154 63.1842 20.3634 65.0502L20.9411 63.6775C20.8488 62.8984 20.8423 62.1116 20.9217 61.331L20.2122 60.4082L19.4476 60.6131C19.0359 60.7234 19.0181 63.7938 18.6688 67.3521C18.1131 69.3817 18.0157 71.5092 18.3836 73.5808C18.2631 74.621 18.4748 75.8031 18.9453 75.677" fill="#FF0074"/>
<path d="M35.838 67.2031C35.3795 65.4765 35.4312 63.654 35.9869 61.9558C37.7379 58.6099 39.2382 56.7591 40.4537 56.4334L41.7084 56.0972C42.0517 56.3779 42.3625 56.696 42.635 57.0458L42.9814 58.3388C43.0324 59.5539 42.9202 60.7704 42.6478 61.9558C40.6086 66.0298 38.1925 68.462 35.4086 69.208C34.9381 69.334 34.4984 68.9479 34.0987 68.0051L33.8048 66.908C33.6583 66.4699 33.615 66.0039 33.6783 65.5463C33.7415 65.0887 33.9096 64.6517 34.1694 64.2696L33.8138 64.1969C33.8482 64.8796 33.9319 65.5589 34.0642 66.2296L34.1482 66.543L34.6173 67.5092L35.838 67.2031ZM39.997 54.729C38.0365 55.2543 36.2908 57.4439 34.5338 61.3163L33.6747 61.1685C33.5152 61.3084 33.3296 61.4152 33.1286 61.4828C32.2756 63.3333 31.8821 65.362 31.9815 67.3966L32.2545 68.4153C33.2174 70.362 34.3386 71.1745 35.6717 70.8173C38.3007 70.1257 40.5973 68.5202 42.1489 66.289C44.3887 62.7282 45.2015 59.8017 44.5716 57.4508L44.2625 56.9247C44.2625 56.9247 44.1837 56.6308 44.2146 56.1186C43.7946 54.5513 42.3888 54.0881 39.997 54.729Z" fill="#FF0074"/>
<path d="M46.5334 60.8517C46.3374 59.8384 46.4319 58.7902 46.8061 57.828C47.1803 56.8659 47.8189 56.0289 48.6483 55.4135L52.0912 53.4412C52.7553 53.4102 53.111 53.4829 53.1687 53.6984C54.0117 53.4725 55.0479 54.2027 56.2432 55.9192L56.5372 57.0163C55.9549 58.7641 55.7771 60.621 56.0172 62.4471L56.174 62.405L56.4418 63.4042C56.4995 63.6197 55.8984 63.8857 54.5653 64.2429L54.0948 64.369C49.9189 65.4879 47.4734 64.6734 46.7227 61.8719L46.5334 60.8517ZM60.7172 56.1483C60.6041 55.7254 60.544 55.2901 60.5381 54.8524C60.797 53.7199 61.3307 52.6683 62.0922 51.7905C62.8537 50.9126 63.8196 50.2355 64.9047 49.8188C66.3555 49.4301 67.2345 49.8875 67.5862 51.2001C68.0043 57.3873 65.8941 61.0394 61.3458 62.2581L60.7184 62.4262L60.5287 62.2671C60.8816 62.1725 61.1883 61.6704 61.4488 60.7607L61.3438 60.3689L60.6577 60.5527C60.1399 61.3498 59.406 61.9834 58.5416 62.3796L58.5049 62.2424C58.4202 60.6756 58.5581 59.1045 58.9145 57.5762C60.1467 58.2539 60.9785 58.535 61.4883 58.3984L61.6451 58.3564C61.9588 58.2723 62.0631 58.0344 61.9686 57.6817L61.8636 57.2899C61.1716 56.8244 60.8065 56.4813 60.7435 56.2462M59.624 48.1471C58.7025 48.394 57.9633 50.4189 57.3514 54.1735C56.6633 53.2584 55.7221 52.5647 54.644 52.1782C53.5658 51.7917 52.3979 51.7293 51.2844 51.9985C50.1705 52.4905 49.1348 53.143 48.2102 53.9351C45.4255 56.4031 44.3624 58.7877 44.9818 61.0995C45.1918 61.8831 45.4641 62.2721 45.4799 62.3309L45.512 63.0782C46.226 65.7425 49.1318 66.7067 54.2206 66.0151C54.3691 65.8466 54.5613 65.7225 54.7759 65.6564C54.9646 65.7423 55.1773 65.76 55.3776 65.7063C55.578 65.6527 55.7534 65.531 55.8738 65.3622L56.1483 65.2886L56.3051 65.2466C56.3389 66.3924 55.8144 71.2574 54.8793 79.8441L54.9895 80.2555L55.6953 80.0664C56.3013 78.8902 56.6713 77.6069 56.7844 76.2889C57.0183 72.3494 57.4607 68.425 58.1098 64.5321C59.4429 64.1748 60.5044 64.0584 61.1905 63.8746L61.8179 63.7065C63.5325 63.1128 65.089 62.1355 66.3685 60.8493C68.9324 57.2436 69.8247 54.0649 69.0898 51.3221L68.7853 50.1858C68.3548 48.5794 67.0337 47.8835 64.8429 48.1765C61.1424 50.05 59.3762 51.3002 59.5441 51.9271L59.4265 51.9586C59.5111 50.8092 59.9523 49.7147 60.6888 48.8277L60.4683 48.0049C60.2135 48.0835 59.9432 48.0983 59.6814 48.0477" fill="#FF0074"/>
<path d="M72.4667 55.1418C72.3264 54.3789 72.3779 53.593 72.6165 52.8547C72.8551 52.1165 73.2734 51.4489 73.8338 50.9119C75.7664 48.7142 76.9411 46.8247 80.3915 45.9001L80.4178 45.9981L80.4807 46.2332C80.7677 46.9122 81.4813 49.2617 73.8811 53.7549C72.8374 54.6435 72.7506 55.3387 74.4562 54.8817C81.5253 51.3077 82.8308 46.9263 82.3846 45.2611C81.9384 43.5959 80.711 43.7988 79.4758 44.1297C78.599 44.4894 77.7618 44.9389 76.9776 45.471C71.7418 49.4567 69.6092 52.9468 70.6973 55.9099C71.084 56.9611 71.3062 58.1824 72.2546 58.6632C72.7344 59.9835 77.5038 60.2174 81.5666 58.5198C84.1836 56.9157 85.7409 55.8265 85.492 55.3682C85.2431 54.91 84.753 55.0413 83.7714 55.2204C83.9376 55.4488 83.3131 55.7841 82.0051 56.4705L80.3614 57.3939L79.7145 57.5673C76.3228 58.476 74.5595 58.7176 72.8883 57.1076L72.4667 55.1418Z" fill="#FF0074"/>
</svg>
